<?xml version="1.0" encoding="UTF-8" standalone="no"?>
<svg
   xmlns:dc="http://purl.org/dc/elements/1.1/"
   xmlns:cc="http://creativecommons.org/ns#"
   xmlns:rdf="http://www.w3.org/1999/02/22-rdf-syntax-ns#"
   xmlns:svg="http://www.w3.org/2000/svg"
   xmlns="http://www.w3.org/2000/svg"
   xml:space="preserve"
   width="30"
   viewBox="0 0 30 30"
   version="1.1"
   id="Layer_1"
   height="30"><metadata
     id="metadata19"><rdf:RDF><cc:Work
         rdf:about=""><dc:format>image/svg+xml</dc:format><dc:type
           rdf:resource="http://purl.org/dc/dcmitype/StillImage" /><dc:title></dc:title></cc:Work></rdf:RDF></metadata><defs
     id="defs17" /><rect
     style="fill:#0055aa;fill-opacity:1;fill-rule:evenodd;stroke:none;stroke-width:1px;stroke-linecap:butt;stroke-linejoin:miter;stroke-opacity:1"
     id="rect3347"
     x="0"
     y="0"
     height="30"
     width="30" /><g
     id="g5"
     transform="translate(-0.999625,-1)"><g
       id="g7"><g
         id="g9"><path
           style="fill:#ffffff;fill-opacity:1"
           id="path11"
           d="m 14.41,24.846 -7.09,-7.08 0.64,-0.304 c 1.315,-0.628 2.946,-0.35 3.98,0.683 l 1.276,1.277 C 13.385,19.342 13.5,19.174 13.5,18.981 L 13.5,7 c 0,-0.827 0.673,-1.5 1.5,-1.5 0.827,0 1.5,0.673 1.5,1.5 l 0,7.786 0.887,-1.087 c 0.287,-0.354 0.707,-0.557 1.152,-0.557 0.39,0 0.687,0.153 0.827,0.257 l 4.384,2.55 c 0.47,0.272 0.75,0.754 0.75,1.286 l 0,3.289 c 0,3.294 -2.68,5.974 -5.974,5.974 -1.536,0 -2.998,-0.587 -4.116,-1.652 z"
           class="st0" /></g><path
         style="stroke-width:0.4;stroke-miterlimit:4;stroke-dasharray:none;stroke:#000000;stroke-opacity:1;fill:#000000;fill-opacity:1"
         id="path13"
         d="m 24.004,15.514 -4.307,-2.493 c -0.327,-0.235 -0.726,-0.377 -1.159,-0.377 -0.623,0 -1.173,0.292 -1.538,0.74 l 0,-2.556 0.585,0.585 c 0.362,0.362 0.862,0.586 1.414,0.586 1.105,0 2,-0.895 2,-2 0,-1.105 -0.895,-2 -2,-2 L 17,7.999 17,7 C 17,5.9 16.1,5 15,5 13.9,5 13,5.9 13,7 l 0,0.999 -2.001,0 c -1.105,0 -2,0.895 -2,2 0,1.105 0.895,2 2,2 0.552,0 1.052,-0.224 1.414,-0.586 L 13,10.826 l 0,7.673 -0.707,-0.708 c -0.78,-0.78 -1.802,-1.17 -2.825,-1.17 -0.739,0 -1.478,0.206 -2.126,0.614 -0.046,0.027 -0.089,0.062 -0.129,0.102 -0.285,0.284 -0.285,0.745 0,1.029 l 6.734,6.735 c 0.001,0.001 0.003,0.003 0.005,0.005 l 0.111,0.111 10e-4,-0.009 C 15.225,26.316 16.794,27 18.526,27 22.102,27 25,24.102 25,20.526 l 0,-3.289 C 25,16.501 24.599,15.86 24.004,15.514 Z M 18.999,8.999 c 0.551,0 1,0.449 1,1 0,0.551 -0.449,1 -1,1 -0.267,0 -0.518,-0.104 -0.707,-0.293 L 17,9.414 l 0,-0.415 1.999,0 z M 14,7 c 0,-0.551 0.449,-1 1,-1 0.551,0 1,0.449 1,1 l 0,0.999 -2,0 L 14,7 Z m -2.294,3.706 c -0.189,0.189 -0.44,0.293 -0.707,0.293 -0.551,0 -1,-0.449 -1,-1 0,-0.551 0.449,-1 1,-1 l 2.001,0 0,0.413 -1.294,1.294 z M 24,20.525 c 0,3.019 -2.455,5.474 -5.474,5.474 -1.407,0 -2.747,-0.538 -3.772,-1.515 l -6.58,-6.57 c 0.402,-0.192 0.843,-0.292 1.294,-0.292 0.8,0 1.552,0.311 2.118,0.877 l 1.307,1.307 c 0.122,0.122 0.304,0.161 0.465,0.1 C 13.733,19.764 14,19.406 14,18.981 L 14,9.826 14.999,8.827 16,9.828 l 0,4.959 c 0,0.211 0.133,0.4 0.332,0.471 0.199,0.071 0.421,0.009 0.555,-0.155 l 0.888,-1.088 c 0.114,-0.139 0.364,-0.372 0.764,-0.372 0.258,0 0.456,0.104 0.576,0.19 l 4.384,2.549 C 23.813,16.565 24,16.884 24,17.236 l 0,3.289 z" /></g></g></svg>